<mxfile host="Electron" agent="Mozilla/5.0 (X11; Linux x86_64) AppleWebKit/537.36 (KHTML, like Gecko) draw.io/26.0.16 Chrome/132.0.6834.196 Electron/34.2.0 Safari/537.36" version="26.0.16">
  <diagram name="PÃ¡gina-1" id="aa7onSQEJuXO5qX1tsnd">
    <mxGraphModel dx="1434" dy="870" grid="1" gridSize="10" guides="1" tooltips="1" connect="1" arrows="1" fold="1" page="1" pageScale="1" pageWidth="827" pageHeight="1169" math="0" shadow="0">
      <root>
        <mxCell id="0" />
        <mxCell id="1" parent="0" />
        <mxCell id="0LEbYmJJCATXqOTYgfFk-13" style="edgeStyle=orthogonalEdgeStyle;rounded=0;orthogonalLoop=1;jettySize=auto;html=1;exitX=0.5;exitY=1;exitDx=0;exitDy=0;exitPerimeter=0;" edge="1" parent="1" source="0LEbYmJJCATXqOTYgfFk-1" target="0LEbYmJJCATXqOTYgfFk-4">
          <mxGeometry relative="1" as="geometry" />
        </mxCell>
        <mxCell id="0LEbYmJJCATXqOTYgfFk-1" value="Start" style="strokeWidth=2;html=1;shape=mxgraph.flowchart.start_1;whiteSpace=wrap;" vertex="1" parent="1">
          <mxGeometry x="55" y="80" width="100" height="60" as="geometry" />
        </mxCell>
        <mxCell id="0LEbYmJJCATXqOTYgfFk-2" value="Stop" style="strokeWidth=2;html=1;shape=mxgraph.flowchart.start_1;whiteSpace=wrap;" vertex="1" parent="1">
          <mxGeometry x="55" y="710" width="100" height="60" as="geometry" />
        </mxCell>
        <mxCell id="0LEbYmJJCATXqOTYgfFk-3" value="EXERC006 -&amp;nbsp;SWAP TWO VARIABLES AND DISPLAY FINAL VALUES" style="text;html=1;align=left;verticalAlign=middle;whiteSpace=wrap;rounded=0;fontStyle=1" vertex="1" parent="1">
          <mxGeometry x="40" y="40" width="760" height="30" as="geometry" />
        </mxCell>
        <mxCell id="0LEbYmJJCATXqOTYgfFk-17" style="edgeStyle=orthogonalEdgeStyle;rounded=0;orthogonalLoop=1;jettySize=auto;html=1;exitX=0.5;exitY=1;exitDx=0;exitDy=0;entryX=0.5;entryY=0;entryDx=0;entryDy=0;" edge="1" parent="1" source="0LEbYmJJCATXqOTYgfFk-4" target="0LEbYmJJCATXqOTYgfFk-5">
          <mxGeometry relative="1" as="geometry" />
        </mxCell>
        <mxCell id="0LEbYmJJCATXqOTYgfFk-4" value="num1&lt;div&gt;num2&lt;/div&gt;" style="shape=internalStorage;whiteSpace=wrap;html=1;dx=15;dy=15;rounded=1;arcSize=8;strokeWidth=2;" vertex="1" parent="1">
          <mxGeometry x="70" y="160" width="70" height="70" as="geometry" />
        </mxCell>
        <mxCell id="0LEbYmJJCATXqOTYgfFk-5" value="&lt;div&gt;&lt;br&gt;&lt;/div&gt;&lt;div&gt;num1&lt;/div&gt;" style="html=1;strokeWidth=2;shape=manualInput;whiteSpace=wrap;rounded=1;size=26;arcSize=11;" vertex="1" parent="1">
          <mxGeometry x="55" y="250" width="100" height="60" as="geometry" />
        </mxCell>
        <mxCell id="0LEbYmJJCATXqOTYgfFk-18" style="edgeStyle=orthogonalEdgeStyle;rounded=0;orthogonalLoop=1;jettySize=auto;html=1;exitX=0.5;exitY=1;exitDx=0;exitDy=0;" edge="1" parent="1" source="0LEbYmJJCATXqOTYgfFk-6" target="0LEbYmJJCATXqOTYgfFk-8">
          <mxGeometry relative="1" as="geometry" />
        </mxCell>
        <mxCell id="0LEbYmJJCATXqOTYgfFk-6" value="&lt;div&gt;&lt;br&gt;&lt;/div&gt;&lt;div&gt;num2&lt;/div&gt;" style="html=1;strokeWidth=2;shape=manualInput;whiteSpace=wrap;rounded=1;size=26;arcSize=11;" vertex="1" parent="1">
          <mxGeometry x="55" y="320" width="100" height="60" as="geometry" />
        </mxCell>
        <mxCell id="0LEbYmJJCATXqOTYgfFk-19" style="edgeStyle=orthogonalEdgeStyle;rounded=0;orthogonalLoop=1;jettySize=auto;html=1;exitX=0.5;exitY=1;exitDx=0;exitDy=0;" edge="1" parent="1" source="0LEbYmJJCATXqOTYgfFk-8" target="0LEbYmJJCATXqOTYgfFk-9">
          <mxGeometry relative="1" as="geometry" />
        </mxCell>
        <mxCell id="0LEbYmJJCATXqOTYgfFk-8" value="num1 = num1 + num2" style="rounded=1;whiteSpace=wrap;html=1;absoluteArcSize=1;arcSize=14;strokeWidth=2;" vertex="1" parent="1">
          <mxGeometry x="40" y="410" width="130" height="40" as="geometry" />
        </mxCell>
        <mxCell id="0LEbYmJJCATXqOTYgfFk-20" style="edgeStyle=orthogonalEdgeStyle;rounded=0;orthogonalLoop=1;jettySize=auto;html=1;exitX=0.5;exitY=1;exitDx=0;exitDy=0;entryX=0.5;entryY=0;entryDx=0;entryDy=0;" edge="1" parent="1" source="0LEbYmJJCATXqOTYgfFk-9" target="0LEbYmJJCATXqOTYgfFk-10">
          <mxGeometry relative="1" as="geometry" />
        </mxCell>
        <mxCell id="0LEbYmJJCATXqOTYgfFk-9" value="num2 = num1 - num2" style="rounded=1;whiteSpace=wrap;html=1;absoluteArcSize=1;arcSize=14;strokeWidth=2;" vertex="1" parent="1">
          <mxGeometry x="40" y="480" width="130" height="40" as="geometry" />
        </mxCell>
        <mxCell id="0LEbYmJJCATXqOTYgfFk-21" style="edgeStyle=orthogonalEdgeStyle;rounded=0;orthogonalLoop=1;jettySize=auto;html=1;exitX=0.5;exitY=1;exitDx=0;exitDy=0;" edge="1" parent="1" source="0LEbYmJJCATXqOTYgfFk-10" target="0LEbYmJJCATXqOTYgfFk-12">
          <mxGeometry relative="1" as="geometry" />
        </mxCell>
        <mxCell id="0LEbYmJJCATXqOTYgfFk-10" value="num1 = num1 - num2" style="rounded=1;whiteSpace=wrap;html=1;absoluteArcSize=1;arcSize=14;strokeWidth=2;" vertex="1" parent="1">
          <mxGeometry x="40" y="554.5" width="130" height="40" as="geometry" />
        </mxCell>
        <mxCell id="0LEbYmJJCATXqOTYgfFk-22" style="edgeStyle=orthogonalEdgeStyle;rounded=0;orthogonalLoop=1;jettySize=auto;html=1;exitX=0.5;exitY=1;exitDx=0;exitDy=0;exitPerimeter=0;" edge="1" parent="1" source="0LEbYmJJCATXqOTYgfFk-12" target="0LEbYmJJCATXqOTYgfFk-2">
          <mxGeometry relative="1" as="geometry" />
        </mxCell>
        <mxCell id="0LEbYmJJCATXqOTYgfFk-12" value="num1, num2" style="strokeWidth=2;html=1;shape=mxgraph.flowchart.display;whiteSpace=wrap;" vertex="1" parent="1">
          <mxGeometry x="55" y="620" width="100" height="60" as="geometry" />
        </mxCell>
        <mxCell id="0LEbYmJJCATXqOTYgfFk-16" style="edgeStyle=orthogonalEdgeStyle;rounded=0;orthogonalLoop=1;jettySize=auto;html=1;exitX=0.5;exitY=1;exitDx=0;exitDy=0;entryX=0.51;entryY=0.15;entryDx=0;entryDy=0;entryPerimeter=0;" edge="1" parent="1" source="0LEbYmJJCATXqOTYgfFk-5" target="0LEbYmJJCATXqOTYgfFk-6">
          <mxGeometry relative="1" as="geometry" />
        </mxCell>
      </root>
    </mxGraphModel>
  </diagram>
</mxfile>
